<svg width="45" height="45" viewBox="0 0 45 45" fill="none" xmlns="http://www.w3.org/2000/svg">
<rect x="0.5" y="0.5" width="44" height="44" rx="22" fill="#F6F6F6"/>
<g clip-path="url(#clip0_2_729)">
<path d="M32.292 29.2036C31.929 30.042 31.4994 30.8139 31.0016 31.5235C30.3231 32.4909 29.7676 33.1605 29.3395 33.5323C28.6758 34.1427 27.9647 34.4552 27.2032 34.473C26.6566 34.473 25.9973 34.3175 25.23 34.0019C24.4601 33.6879 23.7525 33.5323 23.1056 33.5323C22.4271 33.5323 21.6994 33.6879 20.9211 34.0019C20.1415 34.3175 19.5136 34.4819 19.0334 34.4982C18.3032 34.5293 17.5754 34.2078 16.8489 33.5323C16.3852 33.1279 15.8052 32.4346 15.1104 31.4524C14.365 30.4035 13.7521 29.1873 13.272 27.8006C12.7578 26.3029 12.5 24.8526 12.5 23.4485C12.5 21.8401 12.8475 20.4529 13.5437 19.2904C14.0908 18.3566 14.8186 17.62 15.7295 17.0793C16.6405 16.5386 17.6247 16.2631 18.6847 16.2454C19.2647 16.2454 20.0252 16.4248 20.9704 16.7774C21.9129 17.1312 22.5181 17.3106 22.7834 17.3106C22.9817 17.3106 23.654 17.1008 24.7937 16.6826C25.8714 16.2948 26.781 16.1342 27.5262 16.1974C29.5454 16.3604 31.0624 17.1564 32.0712 18.5904C30.2654 19.6846 29.3721 21.2171 29.3898 23.1831C29.4061 24.7145 29.9617 25.9888 31.0535 27.0007C31.5483 27.4703 32.1009 27.8332 32.7156 28.091C32.5823 28.4776 32.4416 28.848 32.292 29.2036ZM27.661 10.9804C27.661 12.1807 27.2225 13.3014 26.3484 14.3387C25.2937 15.5718 24.0179 16.2844 22.6343 16.1719C22.6167 16.0279 22.6065 15.8764 22.6065 15.7171C22.6065 14.5649 23.1081 13.3317 23.9989 12.3235C24.4436 11.813 25.0092 11.3885 25.6951 11.0499C26.3796 10.7163 27.0269 10.5318 27.6358 10.5003C27.6536 10.6607 27.661 10.8212 27.661 10.9804V10.9804Z" fill="black"/>
</g>
<defs>
<clipPath id="clip0_2_729">
<rect width="24" height="24" fill="white" transform="translate(10.5 10.5)"/>
</clipPath>
</defs>
</svg>
