<svg width="25" height="24" viewBox="0 0 25 24" fill="none" xmlns="http://www.w3.org/2000/svg">
<path d="M5.413 2.658C7.488 2.388 9.603 2.25 11.75 2.25C13.897 2.25 16.012 2.389 18.087 2.658C20.009 2.908 21.378 4.519 21.492 6.385C21.1577 6.27362 20.8112 6.20278 20.46 6.174C17.6582 5.94141 14.8418 5.94141 12.04 6.174C9.682 6.37 8 8.364 8 10.608V14.894C7.99906 15.7178 8.22577 16.5258 8.65512 17.2288C9.08446 17.9319 9.69973 18.5026 10.433 18.878L7.78 21.53C7.67511 21.6348 7.54153 21.7061 7.39614 21.735C7.25074 21.7638 7.10004 21.749 6.96308 21.6923C6.82611 21.6356 6.70903 21.5395 6.62661 21.4163C6.54419 21.2931 6.50013 21.1482 6.5 21V16.97C6.1372 16.9314 5.77484 16.8888 5.413 16.842C3.405 16.58 2 14.833 2 12.862V6.638C2 4.668 3.405 2.919 5.413 2.658Z" fill="#FF6D00"/>
<path d="M16.25 7.5C14.874 7.5 13.511 7.557 12.164 7.669C10.624 7.797 9.5 9.103 9.5 10.609V14.894C9.5 16.401 10.628 17.708 12.17 17.834C13.413 17.936 14.67 17.991 15.938 17.999L18.72 20.78C18.8249 20.8848 18.9585 20.9561 19.1039 20.985C19.2493 21.0139 19.4 20.999 19.5369 20.9423C19.6739 20.8856 19.791 20.7896 19.8734 20.6663C19.9558 20.5431 19.9999 20.3982 20 20.25V17.86L20.33 17.834C21.872 17.709 23 16.401 23 14.894V10.608C23 9.103 21.875 7.797 20.336 7.668C18.9769 7.55562 17.6137 7.49957 16.25 7.5Z" fill="#FF6D00"/>
</svg>
