<svg width="24" height="25" viewBox="0 0 24 25" fill="none" xmlns="http://www.w3.org/2000/svg">
<path d="M8.625 12.5986C8.625 12.6981 8.58549 12.7935 8.51517 12.8638C8.44484 12.9341 8.34946 12.9736 8.25 12.9736C8.15054 12.9736 8.05516 12.9341 7.98484 12.8638C7.91451 12.7935 7.875 12.6981 7.875 12.5986C7.875 12.4992 7.91451 12.4038 7.98484 12.3335C8.05516 12.2631 8.15054 12.2236 8.25 12.2236C8.34946 12.2236 8.44484 12.2631 8.51517 12.3335C8.58549 12.4038 8.625 12.4992 8.625 12.5986ZM8.625 12.5986H8.25M12.375 12.5986C12.375 12.6981 12.3355 12.7935 12.2652 12.8638C12.1948 12.9341 12.0995 12.9736 12 12.9736C11.9005 12.9736 11.8052 12.9341 11.7348 12.8638C11.6645 12.7935 11.625 12.6981 11.625 12.5986C11.625 12.4992 11.6645 12.4038 11.7348 12.3335C11.8052 12.2631 11.9005 12.2236 12 12.2236C12.0995 12.2236 12.1948 12.2631 12.2652 12.3335C12.3355 12.4038 12.375 12.4992 12.375 12.5986ZM12.375 12.5986H12M16.125 12.5986C16.125 12.6981 16.0855 12.7935 16.0152 12.8638C15.9448 12.9341 15.8495 12.9736 15.75 12.9736C15.6505 12.9736 15.5552 12.9341 15.4848 12.8638C15.4145 12.7935 15.375 12.6981 15.375 12.5986C15.375 12.4992 15.4145 12.4038 15.4848 12.3335C15.5552 12.2631 15.6505 12.2236 15.75 12.2236C15.8495 12.2236 15.9448 12.2631 16.0152 12.3335C16.0855 12.4038 16.125 12.4992 16.125 12.5986ZM16.125 12.5986H15.75M21 12.5986C21 17.1546 16.97 20.8486 12 20.8486C11.1372 20.8497 10.278 20.7364 9.445 20.5116C8.27076 21.3375 6.83833 21.7127 5.41 21.5686C5.25119 21.5533 5.09307 21.5316 4.936 21.5036C5.42887 20.9228 5.76547 20.2258 5.914 19.4786C6.004 19.0216 5.781 18.5776 5.447 18.2526C3.93 16.7766 3 14.7876 3 12.5986C3 8.04263 7.03 4.34863 12 4.34863C16.97 4.34863 21 8.04263 21 12.5986Z" stroke="black" stroke-width="1.5" stroke-linecap="round" stroke-linejoin="round"/>
</svg>
