<svg width="45" height="45" viewBox="0 0 45 45" fill="none" xmlns="http://www.w3.org/2000/svg">
<rect x="0.5" y="0.5" width="44" height="44" rx="22" fill="#F6F6F6"/>
<g clip-path="url(#clip0_2_721)">
<path d="M34.5 22.5C34.5 15.8726 29.1274 10.5 22.5 10.5C15.8726 10.5 10.5 15.8726 10.5 22.5C10.5 28.1275 14.3746 32.8498 19.6013 34.1467V26.1672H17.1269V22.5H19.6013V20.9198C19.6013 16.8355 21.4498 14.9424 25.4597 14.9424C26.22 14.9424 27.5318 15.0917 28.0685 15.2405V18.5645C27.7853 18.5347 27.2933 18.5198 26.6822 18.5198C24.7147 18.5198 23.9544 19.2653 23.9544 21.203V22.5H27.8741L27.2006 26.1672H23.9544V34.4122C29.8963 33.6946 34.5005 28.6354 34.5005 22.5H34.5Z" fill="#0866FF"/>
<path d="M27.2002 26.1672L27.8736 22.5H23.9539V21.203C23.9539 19.2653 24.7142 18.5198 26.6818 18.5198C27.2928 18.5198 27.7848 18.5347 28.068 18.5645V15.2405C27.5314 15.0912 26.2195 14.9424 25.4592 14.9424C21.4493 14.9424 19.6008 16.8355 19.6008 20.9198V22.5H17.1264V26.1672H19.6008V34.1467C20.5291 34.3771 21.5002 34.5 22.4995 34.5C22.9915 34.5 23.4768 34.4698 23.9534 34.4122V26.1672H27.1997H27.2002Z" fill="white"/>
</g>
<defs>
<clipPath id="clip0_2_721">
<rect width="24" height="24" fill="white" transform="translate(10.5 10.5)"/>
</clipPath>
</defs>
</svg>
