<svg width="17" height="16" viewBox="0 0 17 16" fill="none" xmlns="http://www.w3.org/2000/svg">
<path d="M6.5 2H3.16667C2.79848 2 2.5 2.29848 2.5 2.66667V6C2.5 6.36819 2.79848 6.66667 3.16667 6.66667H6.5C6.86819 6.66667 7.16667 6.36819 7.16667 6V2.66667C7.16667 2.29848 6.86819 2 6.5 2Z" stroke="#FF6D00" stroke-linecap="round" stroke-linejoin="round"/>
<path d="M13.8333 2H10.5C10.1318 2 9.83331 2.29848 9.83331 2.66667V6C9.83331 6.36819 10.1318 6.66667 10.5 6.66667H13.8333C14.2015 6.66667 14.5 6.36819 14.5 6V2.66667C14.5 2.29848 14.2015 2 13.8333 2Z" stroke="#FF6D00" stroke-linecap="round" stroke-linejoin="round"/>
<path d="M13.8333 9.33333H10.5C10.1318 9.33333 9.83331 9.63181 9.83331 10V13.3333C9.83331 13.7015 10.1318 14 10.5 14H13.8333C14.2015 14 14.5 13.7015 14.5 13.3333V10C14.5 9.63181 14.2015 9.33333 13.8333 9.33333Z" stroke="#FF6D00" stroke-linecap="round" stroke-linejoin="round"/>
<path d="M6.5 9.33333H3.16667C2.79848 9.33333 2.5 9.63181 2.5 10V13.3333C2.5 13.7015 2.79848 14 3.16667 14H6.5C6.86819 14 7.16667 13.7015 7.16667 13.3333V10C7.16667 9.63181 6.86819 9.33333 6.5 9.33333Z" stroke="#FF6D00" stroke-linecap="round" stroke-linejoin="round"/>
</svg>
