<svg width="45" height="45" viewBox="0 0 45 45" fill="none" xmlns="http://www.w3.org/2000/svg">
<rect x="0.5" y="0.5" width="44" height="44" rx="22" fill="#F6F6F6"/>
<path d="M22.7449 20.3181V24.9654H29.3349C29.0455 26.46 28.1771 27.7255 26.8747 28.5764L30.8488 31.5982C33.1642 29.5037 34.5 26.4273 34.5 22.7728C34.5 21.9219 34.4221 21.1037 34.2774 20.3183L22.7449 20.3181Z" fill="#4285F4"/>
<path d="M15.8824 24.784L14.9861 25.4564L11.8135 27.8782C13.8283 31.7945 17.9579 34.5 22.7446 34.5C26.0507 34.5 28.8225 33.4309 30.8485 31.5982L26.8745 28.5764C25.7835 29.2964 24.392 29.7328 22.7446 29.7328C19.5609 29.7328 16.8559 27.6273 15.8874 24.791L15.8824 24.784Z" fill="#34A853"/>
<path d="M11.8135 17.1218C10.9786 18.7363 10.5 20.5581 10.5 22.4999C10.5 24.4417 10.9786 26.2636 11.8135 27.878C11.8135 27.8889 15.8878 24.7799 15.8878 24.7799C15.6429 24.0599 15.4981 23.2963 15.4981 22.4998C15.4981 21.7033 15.6429 20.9398 15.8878 20.2198L11.8135 17.1218Z" fill="#FBBC05"/>
<path d="M22.7448 15.2782C24.5482 15.2782 26.1512 15.8891 27.4314 17.0673L30.9378 13.6309C28.8117 11.6892 26.0511 10.5 22.7448 10.5C17.9582 10.5 13.8283 13.1945 11.8135 17.1218L15.8877 20.22C16.8561 17.3836 19.5612 15.2782 22.7448 15.2782Z" fill="#EA4335"/>
</svg>
