<svg width="18" height="19" viewBox="0 0 18 19" fill="none" xmlns="http://www.w3.org/2000/svg">
<path d="M10.902 16.8631C10.9305 16.9341 10.98 16.9947 11.044 17.0368C11.1079 17.0788 11.1831 17.1003 11.2596 17.0984C11.3361 17.0964 11.4102 17.0711 11.4719 17.0258C11.5336 16.9806 11.5799 16.9175 11.6047 16.8451L16.4797 2.59513C16.5038 2.52867 16.5083 2.45676 16.493 2.38779C16.4776 2.31883 16.4429 2.25567 16.3929 2.20571C16.343 2.15575 16.2798 2.12105 16.2108 2.10567C16.1419 2.0903 16.07 2.09488 16.0035 2.11888L1.7535 6.99388C1.68112 7.0187 1.61807 7.06507 1.5728 7.12676C1.52754 7.18845 1.50223 7.26251 1.50027 7.339C1.49831 7.41549 1.51979 7.49075 1.56184 7.55467C1.60389 7.6186 1.66449 7.66814 1.7355 7.69663L7.683 10.0816C7.87101 10.1569 8.04184 10.2695 8.18517 10.4126C8.32851 10.5556 8.44139 10.7263 8.517 10.9141L10.902 16.8631Z" stroke="black" stroke-width="1.5" stroke-linecap="round" stroke-linejoin="round"/>
<path d="M16.3905 2.20889L8.1855 10.4131" stroke="black" stroke-width="1.5" stroke-linecap="round" stroke-linejoin="round"/>
</svg>
