<svg width="25" height="24" viewBox="0 0 25 24" fill="none" xmlns="http://www.w3.org/2000/svg">
<path fill-rule="evenodd" clip-rule="evenodd" d="M11 3.75001C10.1136 3.75001 9.23583 3.9246 8.41689 4.26382C7.59794 4.60304 6.85382 5.10024 6.22703 5.72704C5.60023 6.35384 5.10303 7.09795 4.76381 7.9169C4.42459 8.73585 4.25 9.61359 4.25 10.5C4.25 11.3864 4.42459 12.2642 4.76381 13.0831C5.10303 13.9021 5.60023 14.6462 6.22703 15.273C6.85382 15.8998 7.59794 16.397 8.41689 16.7362C9.23583 17.0754 10.1136 17.25 11 17.25C12.7902 17.25 14.5071 16.5389 15.773 15.273C17.0388 14.0071 17.75 12.2902 17.75 10.5C17.75 8.7098 17.0388 6.99291 15.773 5.72704C14.5071 4.46117 12.7902 3.75001 11 3.75001ZM2.75 10.5C2.75017 9.17511 3.06944 7.86973 3.68079 6.69431C4.29214 5.51889 5.17759 4.50799 6.26224 3.74713C7.34689 2.98627 8.59883 2.49784 9.91216 2.32314C11.2255 2.14843 12.5616 2.29261 13.8074 2.74347C15.0533 3.19432 16.1722 3.9386 17.0695 4.91333C17.9669 5.88807 18.6163 7.06459 18.9628 8.34337C19.3094 9.62216 19.3428 10.9656 19.0603 12.26C18.7778 13.5545 18.1878 14.7618 17.34 15.78L22.03 20.47C22.1037 20.5387 22.1628 20.6215 22.2038 20.7135C22.2448 20.8055 22.2668 20.9048 22.2686 21.0055C22.2704 21.1062 22.2518 21.2062 22.2141 21.2996C22.1764 21.393 22.1203 21.4778 22.049 21.549C21.9778 21.6203 21.893 21.6764 21.7996 21.7141C21.7062 21.7519 21.6062 21.7704 21.5055 21.7686C21.4048 21.7668 21.3055 21.7448 21.2135 21.7038C21.1215 21.6628 21.0387 21.6037 20.97 21.53L16.28 16.84C15.0752 17.8435 13.6094 18.4829 12.0543 18.6833C10.4992 18.8837 8.91922 18.6367 7.49941 17.9714C6.0796 17.3061 4.87878 16.25 4.03763 14.9267C3.19648 13.6035 2.74983 12.068 2.75 10.5Z" fill="#FF6D00"/>
</svg>
