<svg width="36" height="30" viewBox="0 0 36 30" fill="none" xmlns="http://www.w3.org/2000/svg">
<path d="M24.1478 21.376L18.0487 15.2769L11.9497 21.376" stroke="black" stroke-width="1.52475" stroke-linecap="round" stroke-linejoin="round"/>
<path d="M18.0474 15.2769V28.9997" stroke="black" stroke-width="1.52475" stroke-linecap="round" stroke-linejoin="round"/>
<path d="M30.8412 25.0204C32.3283 24.2096 33.5031 22.9267 34.1802 21.3741C34.8572 19.8215 34.998 18.0877 34.5802 16.4462C34.1624 14.8048 33.2099 13.3492 31.8729 12.3092C30.536 11.2692 28.8908 10.7041 27.197 10.703H25.2758C24.8143 8.91785 23.9541 7.26058 22.7599 5.85577C21.5657 4.45095 20.0686 3.33513 18.381 2.59221C16.6935 1.84928 14.8596 1.49858 13.017 1.56647C11.1744 1.63436 9.37124 2.11907 7.74297 2.98416C6.1147 3.84925 4.70373 5.07221 3.61614 6.5611C2.52855 8.04999 1.79264 9.76606 1.46374 11.5803C1.13484 13.3945 1.2215 15.2597 1.7172 17.0357C2.21291 18.8116 3.10477 20.452 4.32573 21.8337" stroke="black" stroke-width="1.52475" stroke-linecap="round" stroke-linejoin="round"/>
<path d="M24.1478 21.376L18.0487 15.2769L11.9497 21.376" stroke="black" stroke-width="1.52475" stroke-linecap="round" stroke-linejoin="round"/>
</svg>
